<mxfile host="app.diagrams.net" agent="Mozilla/5.0 (Macintosh; Intel Mac OS X 10_15_7) AppleWebKit/537.36 (KHTML, like Gecko) Chrome/132.0.0.0 Safari/537.36" version="26.0.9">
  <diagram name="Page-1" id="h5cwWmlXTZybQypp3t5F">
    <mxGraphModel dx="1434" dy="835" grid="0" gridSize="10" guides="1" tooltips="1" connect="1" arrows="1" fold="1" page="0" pageScale="1" pageWidth="827" pageHeight="1169" math="0" shadow="0">
      <root>
        <mxCell id="0" />
        <mxCell id="1" parent="0" />
        <mxCell id="5" value="Bash Script" style="whiteSpace=wrap;strokeWidth=2;" parent="1" vertex="1">
          <mxGeometry x="394" y="6" width="511" height="380" as="geometry" />
        </mxCell>
        <mxCell id="6" value="Functions" style="whiteSpace=wrap;strokeWidth=2;verticalAlign=top;" parent="1" vertex="1">
          <mxGeometry x="426" y="23" width="450" height="129" as="geometry" />
        </mxCell>
        <mxCell id="7" value="function to pipe inbuilt commands" style="whiteSpace=wrap;strokeWidth=2;" parent="6" vertex="1">
          <mxGeometry x="33.59375" y="46" width="105.46875" height="54" as="geometry" />
        </mxCell>
        <mxCell id="8" value="function to print dataÂ &#xa;and help" style="whiteSpace=wrap;strokeWidth=2;" parent="6" vertex="1">
          <mxGeometry x="178.125" y="46" width="105.46875" height="54" as="geometry" />
        </mxCell>
        <mxCell id="9" value="other utility functions" style="whiteSpace=wrap;strokeWidth=2;" parent="6" vertex="1">
          <mxGeometry x="323.4375" y="46" width="105.46875" height="54" as="geometry" />
        </mxCell>
        <mxCell id="10" value="Main Logic" style="whiteSpace=wrap;strokeWidth=2;" parent="1" vertex="1">
          <mxGeometry x="583.5" y="266" width="135" height="54" as="geometry" />
        </mxCell>
        <mxCell id="11" value="$ internsctl cpu getinfo" style="whiteSpace=wrap;strokeWidth=2;" parent="1" vertex="1">
          <mxGeometry x="185" y="196" width="171" height="54" as="geometry" />
        </mxCell>
        <mxCell id="12" value="$ internsctl user create &lt;username&gt;" style="whiteSpace=wrap;strokeWidth=2;" parent="1" vertex="1">
          <mxGeometry x="146" y="305" width="210" height="54" as="geometry" />
        </mxCell>
        <mxCell id="13" value="create new user for system" style="whiteSpace=wrap;strokeWidth=2;" parent="1" vertex="1">
          <mxGeometry x="976" y="135" width="167" height="54" as="geometry" />
        </mxCell>
        <mxCell id="14" value="print info about cpu" style="whiteSpace=wrap;strokeWidth=2;" parent="1" vertex="1">
          <mxGeometry x="980" y="231" width="167" height="54" as="geometry" />
        </mxCell>
        <mxCell id="15" value="etc ..." style="whiteSpace=wrap;strokeWidth=2;" parent="1" vertex="1">
          <mxGeometry x="976" y="326" width="167" height="54" as="geometry" />
        </mxCell>
        <mxCell id="18" value="" style="curved=1;startArrow=none;endArrow=block;exitX=0.94;exitY=0;entryX=0;entryY=0.49;" parent="1" source="10" target="13" edge="1">
          <mxGeometry relative="1" as="geometry">
            <Array as="points">
              <mxPoint x="905" y="147" />
            </Array>
          </mxGeometry>
        </mxCell>
        <mxCell id="19" value="" style="curved=1;startArrow=none;endArrow=block;exitX=1;exitY=0.35;entryX=0;entryY=0.49;" parent="1" source="10" target="14" edge="1">
          <mxGeometry relative="1" as="geometry">
            <Array as="points">
              <mxPoint x="905" y="251" />
            </Array>
          </mxGeometry>
        </mxCell>
        <mxCell id="20" value="" style="curved=1;startArrow=none;endArrow=block;exitX=1;exitY=0.76;entryX=0;entryY=0.49;" parent="1" source="10" target="15" edge="1">
          <mxGeometry relative="1" as="geometry">
            <Array as="points">
              <mxPoint x="905" y="355" />
            </Array>
          </mxGeometry>
        </mxCell>
        <mxCell id="ZbyOcBi8ckBP30LvIPW5-21" value="" style="endArrow=classic;startArrow=classic;html=1;rounded=0;fontSize=12;startSize=8;endSize=8;curved=1;entryX=0.459;entryY=1;entryDx=0;entryDy=0;entryPerimeter=0;exitX=0.25;exitY=0;exitDx=0;exitDy=0;" edge="1" parent="1" source="10" target="7">
          <mxGeometry width="50" height="50" relative="1" as="geometry">
            <mxPoint x="586" y="346" as="sourcePoint" />
            <mxPoint x="640" y="305" as="targetPoint" />
          </mxGeometry>
        </mxCell>
        <mxCell id="ZbyOcBi8ckBP30LvIPW5-22" style="edgeStyle=none;curved=1;rounded=0;orthogonalLoop=1;jettySize=auto;html=1;entryX=0.25;entryY=0;entryDx=0;entryDy=0;fontSize=12;startSize=8;endSize=8;" edge="1" parent="1" source="10" target="10">
          <mxGeometry relative="1" as="geometry" />
        </mxCell>
        <mxCell id="ZbyOcBi8ckBP30LvIPW5-23" value="" style="endArrow=classic;startArrow=classic;html=1;rounded=0;fontSize=12;startSize=8;endSize=8;curved=1;entryX=0.5;entryY=1;entryDx=0;entryDy=0;exitX=0.5;exitY=0;exitDx=0;exitDy=0;" edge="1" parent="1" source="10" target="8">
          <mxGeometry width="50" height="50" relative="1" as="geometry">
            <mxPoint x="590" y="355" as="sourcePoint" />
            <mxPoint x="640" y="305" as="targetPoint" />
          </mxGeometry>
        </mxCell>
        <mxCell id="ZbyOcBi8ckBP30LvIPW5-25" value="" style="endArrow=classic;startArrow=classic;html=1;rounded=0;fontSize=12;startSize=8;endSize=8;curved=1;entryX=0.5;entryY=1;entryDx=0;entryDy=0;exitX=0.75;exitY=0;exitDx=0;exitDy=0;" edge="1" parent="1" source="10" target="9">
          <mxGeometry width="50" height="50" relative="1" as="geometry">
            <mxPoint x="590" y="355" as="sourcePoint" />
            <mxPoint x="640" y="305" as="targetPoint" />
          </mxGeometry>
        </mxCell>
        <mxCell id="ZbyOcBi8ckBP30LvIPW5-26" value="" style="endArrow=classic;html=1;rounded=0;fontSize=12;startSize=8;endSize=8;curved=1;exitX=1;exitY=0.5;exitDx=0;exitDy=0;entryX=-0.004;entryY=0.648;entryDx=0;entryDy=0;entryPerimeter=0;" edge="1" parent="1" source="12" target="10">
          <mxGeometry width="50" height="50" relative="1" as="geometry">
            <mxPoint x="590" y="355" as="sourcePoint" />
            <mxPoint x="640" y="305" as="targetPoint" />
          </mxGeometry>
        </mxCell>
        <mxCell id="ZbyOcBi8ckBP30LvIPW5-27" value="" style="endArrow=classic;html=1;rounded=0;fontSize=12;startSize=8;endSize=8;curved=1;exitX=1;exitY=0.5;exitDx=0;exitDy=0;entryX=0;entryY=0.25;entryDx=0;entryDy=0;" edge="1" parent="1" source="11" target="10">
          <mxGeometry width="50" height="50" relative="1" as="geometry">
            <mxPoint x="590" y="355" as="sourcePoint" />
            <mxPoint x="640" y="305" as="targetPoint" />
          </mxGeometry>
        </mxCell>
      </root>
    </mxGraphModel>
  </diagram>
</mxfile>
